<svg id="图层_1" data-name="图层 1" xmlns="http://www.w3.org/2000/svg" viewBox="0 0 841.89 595.28"><defs><style>.cls-1{fill:#b25937;}.cls-2{fill:#943623;}.cls-3{fill:#c17b56;}.cls-4{fill:#c28758;}.cls-5{fill:#e3cba2;}.cls-6{fill:#d0ae73;}.cls-7{fill:#811e22;}.cls-8{fill:#ddc393;}.cls-9{fill:#35140e;}.cls-10{fill:#d0b075;}.cls-11{fill:#fefdfd;}.cls-12{fill:#932e26;}.cls-13{fill:#c08962;}.cls-14{fill:#c08355;}.cls-15{fill:#090605;}.cls-16{fill:#fff;}.cls-17{fill:#231815;}.cls-18{fill:#17120d;}</style></defs><title>tuboshu</title><path class="cls-1" d="M354.05,432.45c-2.06-.38-5.12-1.43-6.27-1.75-12-3.38-16.41-8.55-17.66-21-.77-2.63-.27-5.32-.33-8,0-.5,0-1.21,1.18-1.34,2.1.63,2.08,3.07,3,4.79,3.1,5.85,7.49,10.05,14.09,11.73a141.78,141.78,0,0,0,25.52,3.72c4.77.33,7.68-1.18,8.54-6.19.52-3,2-5.77,3.42-8.5,2.57-5,6.39-8,12.23-8a3.26,3.26,0,0,1,2.85,1.75,1.49,1.49,0,0,1-.86,1.34c-10.69,3.93-13.15,12.59-13.31,23.21,2.31-.88,2.55-3.45,4.38-4.19a26.11,26.11,0,0,0,6.47-4.44c3.1-2.93,4.05-1.17,4.4,2-.23,4.52-2.48,8.18-5,11.74-1.69,2.19-5.9,3.19-6.68,3.19h-2.3a6.21,6.21,0,0,0-5.75,0C371.66,432.45,367.34,434.73,354.05,432.45Z"/><path class="cls-2" d="M456.87,430.44l-2.47,2a2.11,2.11,0,0,1-2.3,0s-4.18-2.64-6.52-4.47c-5.75-4-14.2-5.05-19.54-9.83,0-5.53,1.5-7.54,6.6-7.79,10.76-.52,18.42,5.24,24.88,13C459.42,425.6,459.36,428.28,456.87,430.44Z"/><path class="cls-3" d="M382,432.45c1.92-1.57,3.83-1.81,5.75,0Z"/><path class="cls-4" d="M398.16,399.05c-10.4.52-12.72,8.76-14.67,16.44-1.34,5.26-3.31,7.08-8.78,6.75a145.31,145.31,0,0,1-27.58-3.95c-8.7-2.23-13.68-8.35-16.57-17.88-.18,3.87-.31,6.58-.44,9.28-1.73-5.05-.91-10.14-.29-15.24,1.3-10.78,2.55-21.56,3.9-32.33.39-3.11.16-5.3-3.61-6.37-6.64-1.89-9.09-6.95-8.92-13.59a84.65,84.65,0,0,1,6.94-30.48c2.3-5.52,2.33-10.08-.88-15a37.16,37.16,0,0,1-2.55-5.71c.34-1.31-.38-2.64.09-4,.73-2,1.54-4.1,4-4.44,2.27-.33,3.46,1.43,4.32,3.15a50.61,50.61,0,0,0,10.73,14.05c1.58,1.48,3,3.34,3.1,5.37.54,8.8,6.07,16,7.57,25.81,1.09-4.89,4.09-6.54,8.61-8.23-5.6-3.49-10.4-6.43-13.08-11.75a103.1,103.1,0,0,1-5.69-13.1,48.26,48.26,0,0,0-6.92-12.49c-3.69-5.16-4.79-5.52-10.62-2.4-3.31,1.78-4.85-.9-7.07-2-3.94-10.67-2.94-21.59-.5-32.19,4.47-19.46,12.24-37.48,26.84-51.77,2.05-2,1.88-3.66,1.2-6.05a26.61,26.61,0,0,1,4.13-24c3.47-4.79,5.22-4.64,8.22.35a105.73,105.73,0,0,1,5.65,10c1.72,3.72,3.38,4.51,7.77,3.09,25.3-8.14,50.42-8.41,74.73,3.86,8.43,4.26,8.35,4.4,13.95-3.43,1.78-2.49,3.56-5,5.37-7.45,3.72-5.06,4.5-5.1,7.63.63,5.65,10.35,8,20.85-.45,31-1.9,2.29-.12,3.49.86,4.9a91.22,91.22,0,0,1,14.37,32.92,52.87,52.87,0,0,1,.63,5.64c-.67,7.13-.13,14.3-1.89,21.41-2,8-5,15.26-11.26,20.86-8.66,7.78-13.51,18-18.06,28.36-3,6.89-1.1,13.6.93,20.19,2.29,7.41,6.41,13.72,11.67,19.53,6.9,7.63,11.7,16.59,13,27,.38,3,1.69,5.38,3.11,7.89,2.9,5.11,4.78,10.49,2.77,16.45-.36,1.07-.66,2.39-2,2.61-1.61.26-2.39-1-2.9-2.26-1.23-3-2.24-6.1-3.48-9.12-5.31-12.84-22.82-10.25-28-2a44,44,0,0,0-4.4,9.94c-1.16,3.59-3,5.26-6.74,2.95s-7.79-1.48-11.73-2a2.42,2.42,0,0,1-1.25-1.13,1.68,1.68,0,0,1,.59-1.44c2-1.62,6.79.63,6.38-4.48a21.57,21.57,0,0,1,3.26-9.73c2.38-3.66,2-7.06.37-10.84-4.16-9.5-8.55-18.78-16.27-26.09a22.4,22.4,0,0,0-19.46-6.19,11.2,11.2,0,0,1-1.13.21c-14.6.43-20.85,7.23-25.34,24.22-1.13,4.27-.06,6.79,4.33,8.35,5.66,2,10.68,5.19,13.91,10.55C397.57,395.39,398.9,396.92,398.16,399.05Z"/><path class="cls-1" d="M430.23,409.41c4.74.1,9.62-.65,13.88,2.35,2.39,1.69,3.22.35,3.85-1.9,1.51-5.36,3.24-10.69,7.59-14.52,7.11-6.24,23.42-7.5,28.13,6,1.24,3.56,2.64,7.06,4.33,11.54,3.17-7.67,1.51-13.83-2.34-19.68-1-1.57-2.45-2.73-2.57-4.92-.65-12-6.9-21.18-14.35-30.24-11.51-14-18.62-30.63-6.33-50.33,3.43-5.52,6.16-11.61,11.27-15.74,11.7-9.47,13.66-22.78,15.21-36.38.27-2.38-.86-5,1.21-7.1a104.28,104.28,0,0,1,.86,31.05,13.27,13.27,0,0,0-5.22,5.89,17,17,0,0,1-3.44,5.26C470.54,302.38,468,318,465,333.09c-2.65,13.78,4.65,20.28,18.44,17.86,3.1-.55,6.17-1.41,6.36,3.37,2.18,10.64,4.62,21.25,6.46,31.95,1.69,9.84,2,19.73-1.63,29.38-2.92,7.87-8.22,12.29-16.72,13.65-7,1.13-14.1,0-21.07,1.14,1-2.21,1.33-4.51-.42-6.4-6.32-6.84-13.29-12.51-23.36-12.33-4.54.07-6.77,2.05-6.16,6.73-3.54-1.29-4.26-3.18-2.24-6.28C426,410.21,427.55,408.65,430.23,409.41Z"/><path class="cls-4" d="M489.83,354.32c-.75-3-2.9-2.91-5.17-2.17a18.43,18.43,0,0,1-10.68.44c-9.93-2.63-11.22-8.21-11.07-16.77a54.15,54.15,0,0,1,5.77-22.51c1.76-3.64,3.51-7.18,3-11.41-.27-2.13,1.2-3.56,2.62-4.85,5.13-4.67,9.85-9.68,12.11-16.39,1.13-3.34,3.07-.77,4.59-1.11,2.29,5.63,1,10.73-2,15.72-1.87,3.06-1.79,6-.36,9.67,4,10.28,7.54,20.79,7.56,32.06,0,4.85-.13,9.65-4.91,12.63C489.36,350.79,490.4,352.79,489.83,354.32Z"/><path class="cls-1" d="M319.71,281c3.91,1.7,6.81.48,10.32-1.94,2.7-1.85,5.61,1.55,7.41,3.95,3.78,5,7.44,10.24,8.9,16.52,1.2,5.16,4.23,9.35,6.79,13.8,2.13,3.69,5.86,5.31,9.44,7.14,2.68,1.37,3.06,3.69,0,4.21-5.57.94-6.7,4.76-8.15,9.5-.7-9.34-7.79-16.37-8-25.65a11.13,11.13,0,0,0-4.2-8.42,41.41,41.41,0,0,1-9.75-12.61c-.77-1.58-1-4.32-3.44-3.95s-2.76,2.84-3.33,4.87c-.25.88-.65,1.72-1,2.58A21.08,21.08,0,0,1,319.71,281Z"/><path class="cls-5" d="M398.16,399.05c-3.73-7.91-10-12.79-18.24-15.35-1.68-.53-3.53-.69-3.83-3.42-1.23-11.06,9.15-27.66,19.73-29.87,16.67-3.49,25.66-3.22,37.76,15.23a50.89,50.89,0,0,1,3.69,6.45c3.89,8.39,10.1,16.55,2.34,26.1-1.08,1.33-.95,3.63-1.39,5.48-1.46,3.59-5.24,3.2-8,4.65h0c-8.81,4.08-18.08,4.5-27.53,3.49a4.92,4.92,0,0,1-2.32-1.4c-1.21-1.59-.79-3.2.25-4.59,1.49-2,.76-3.81-.13-5.68Z"/><path class="cls-6" d="M401,410.68c9.7.57,19.72-1.06,29.27-2.35a7.81,7.81,0,0,1,0,1.08c-5.91,3.41-6.58,5.23-3.3,9a81,81,0,0,1,18.24,9.29c-16.49.7-31.6,1.95-48.12,1.07a26,26,0,0,0,3.48-11.23C402,415.43,398.79,412.72,401,410.68Z"/><path class="cls-2" d="M400.55,400.15c3.32.83,3.83,2.68,2,5.44-.83,1.26-1.57,2.59-2.34,3.88C398,414,394.34,417.33,391,421c-.7,1.32-1.47,2.6-2.07,4-.45,1-.63,2.44-2.1,2.12a2.82,2.82,0,0,1-2.28-2.94c.88-7.32,1.42-14.87,7.32-20.34C394.26,401.58,397,399.86,400.55,400.15Z"/><path class="cls-7" d="M415.21,332.38c-.93,1.65-1.81,3.32-2.78,4.94-2.2,3.65-5.37,6.48-9.66,6.16s-7.64-3.27-9.27-7.58c-.74-1.95-1.43-3.91-2.14-5.86-4.78-9-3.22-18.37-1.47-27.73.44-1.64.79-3.31,1.29-4.93.68-2.19,1.86-3.83,4.56-2.6,2.4,1.67,2.74,4.47,3.77,6.9,1,2.26,1.55,5,4.82,4.84s5.11-2.2,5.86-5.32a13.9,13.9,0,0,1,1.91-4.77c1-1.44,2.12-2.79,4.15-2.72a2.93,2.93,0,0,1,1.6.74c.52,2.06.43,4.23,1.11,6.26.39,8.36,1.09,16.72-.77,25A13.56,13.56,0,0,1,415.21,332.38Z"/><path class="cls-8" d="M391.34,301.41a87.6,87.6,0,0,0,0,28.63c-1.06,3.18-1.6.6-2-.25a81.22,81.22,0,0,1-6-22c-1.35-9.59-1.81-19.33-2.85-28.95-1.18-11,3.94-16.77,12.73-21,2.84,5.88,7.07,10.86,10.55,16.34,1,11.74-1.37,17.78-11.49,20.53C391.64,297.31,391.92,299.19,391.34,301.41Z"/><path class="cls-8" d="M417.55,294.6l-.52-.07h-.51c-10.65-3.36-13.79-9.51-12.6-20.11,2.65-5.73,7.35-9.83,11.5-14.37,6.8,3.74,11.62,8.44,11.61,17.19,0,16.84-1,33.44-7.21,49.34-1.58,4.07-1.93,4.48-4.61,5.79,3.19-10.85,2.46-22,2.23-33.05C416,297.72,419.09,296.21,417.55,294.6Z"/><path class="cls-9" d="M415.42,260.06c-2.19,5.65-6.74,9.5-10.59,13.88a1.23,1.23,0,0,1-2-.16c-4.55-4.49-9-9-9.53-15.94C402.6,252.67,410.81,253.49,415.42,260.06Z"/><path class="cls-10" d="M430.27,408.32l8-4.64C438.94,411,433.29,407.41,430.27,408.32Z"/><path class="cls-11" d="M413.12,296.81c-.66,2-1.69,3.91-1.9,5.93-.53,5.06-4.42,4.94-7.89,5.53-3.69.63-3.63-2.56-4.54-4.65-1.13-2.6-2.08-5.29-3.11-7.94,1.12-4.24,5-5.62,8.23-7.2C406.86,287.06,412.66,292.62,413.12,296.81Z"/><path class="cls-12" d="M413.12,296.81c-.95-4.4-5.67-4.86-8.1-7.74-.64-.75-1.31.22-1.87.66l-7.47,5.95c-1.74-.91-2.87-.48-3.24,1.53-.26,1.43.32,3.07-1.1,4.2-.94-4.55-.08-7.76,4.71-10.16,7.07-3.56,6.52-10.85,6.78-17.47l2,.16c-1.41,9.88,3.72,16,11.69,20.6C414.77,294.37,414.25,296.05,413.12,296.81Z"/><path class="cls-13" d="M417.55,294.6c2.1.76,2.1.76-.11,4.73C416,297.72,417.17,296.17,417.55,294.6Z"/><path class="cls-14" d="M391,421a27.26,27.26,0,0,1,9.19-11.49,5.75,5.75,0,0,1,.9,1.42c.22.36,1.25,4.58-.58,6.68.05-1.62.82-3.5-1.49-1.68C396.51,417.89,394.38,420.33,391,421Z"/><path class="cls-15" d="M468.28,276c4.46.55,8.49-3.55,13.91-1.14-5.66,5.83-12.89,5.48-19.4,6.38-27,3.74-52.37-18.8-51.61-45.6.54-19.22,16.57-36.14,35.47-37.45,21.91-1.51,40.28,11.81,43.88,31.81,3.42,19-5.22,35-24,44.38-1.88,2.57-4.59,2.12-7.87,2A43.23,43.23,0,0,0,468.28,276Z"/><path class="cls-16" d="M487.22,237.28c.2,19.57-15.85,35.82-35.74,36.16-19.57.34-36.34-15.9-36.53-35.37s16-35.92,35.73-36.25C470.17,201.49,487,217.84,487.22,237.28Z"/><path class="cls-4" d="M477.27,273.73c-2.55,2-16.23,4.78-21,3.34,3.79-.94,4.84-.81,10.26-2.66C467.11,275,476.68,273.19,477.27,273.73Z"/><path class="cls-17" d="M446.56,260.65l-6-1c.27-1.54.47-3,.8-4.49.22-.95,0-1.35-1-1.49-2.17-.3-4.31-.73-6.46-1.1l-1.4-.24.85-4.9c.68.12,1.32.26,2,.34,1.56.19,2.19-.22,2.5-1.76.42-2.1.77-4.22,1.14-6.33q1.22-7,2.41-13.91c.47-2.72.19-3.13-2.49-3.7l-1.05-.23.83-4.78c2.63.46,5.2.86,7.74,1.37,1.05.22,1.43-.08,1.55-1.11a27.59,27.59,0,0,1,.66-3.72,1.13,1.13,0,0,1,.88-.65c1.66.21,3.31.54,5.14.86l-1,5.77,3.84.67,1-5.69,6,1.05c-.27,1.53-.48,3.09-.83,4.63a1.53,1.53,0,0,0,1,2.1c3.16,1.51,5.29,3.92,5.24,7.62a8,8,0,0,1-6.18,7.78c-.51.15-1,.28-1.82.49,4.87,2.21,7.58,5.58,6.08,10.85-1.43,5-5.48,6.77-10.47,7.09l-1.08,6.21-5.95-1,1-5.61-3.91-.68Zm1.66-22.08c-.57,3.27-1.08,6.19-1.58,9.12-.12.68.11,1.21.82,1.31a57,57,0,0,0,7.45.85c2.29,0,4-2,4.35-4.33s-.58-4.18-3-5S451,239.23,448.22,238.57Zm.82-4.85c2.82.26,5.52.68,8.21.68,2.25,0,3.56-1.52,3.83-3.75a3.61,3.61,0,0,0-2.81-4.05c-1.83-.59-3.75-.91-5.63-1.34-.67-.15-1.35-.24-2.07-.36Z"/><path class="cls-18" d="M351.8,275.75c2.22.15,4.66-.74,6.49,1.34-8.61,6.06-17.1,3.77-25.4-.59a40.46,40.46,0,0,1-19.78-23.3c-.51-1.48-2.45-3.73.43-4.72,2.73-.94,2.72,1.79,3.38,3.38,5.36,12.95,13.92,22.08,28.53,24.05C347.58,276.21,349.72,277.38,351.8,275.75Z"/><path class="cls-15" d="M345.34,274.28c-3-1.66-6.43-2.94-9-5.13-1.67-1.41-8.55-2.1-2.18-6.81,1.55-1.14-1.24-2.33-2.11-3.34-11.8-13.72-14.23-30-6.55-44.64,7.91-15.12,23-22.77,41.72-21.14,15.46,1.34,28.9,12.74,33.66,28.25,1.53,5,1.48,10.07,1.11,15.13-1.4,19.66-24.42,40.91-43.67,40.49-2.31-1.29-4.54-.24-6.79.25A6.09,6.09,0,0,1,345.34,274.28Z"/><path class="cls-16" d="M361.45,267.5c-19.86-.11-36.44-16.29-36.33-35.47s16.63-35.24,36.53-35.27c20.22,0,37.17,16.5,36.8,35.88C398.09,251.86,381.37,267.61,361.45,267.5Z"/><path class="cls-17" d="M364.65,255.54,358.81,257c-.37-1.5-.79-2.94-1.08-4.4-.18-1-.54-1.23-1.52-1-2.09.6-4.22,1.07-6.33,1.6l-1.37.34-1.19-4.8c.66-.16,1.3-.29,1.93-.48,1.49-.46,1.89-1.08,1.56-2.61-.47-2.09-1-4.15-1.52-6.22q-1.69-6.83-3.41-13.64c-.66-2.67-1.08-2.93-3.75-2.36l-1.06.21L339.9,219c2.59-.65,5.08-1.32,7.61-1.88,1-.23,1.26-.65.95-1.64a28.56,28.56,0,0,1-.89-3.65,1.11,1.11,0,0,1,.54-1c1.6-.47,3.23-.84,5-1.29l1.41,5.66,3.76-.94-1.39-5.57,5.87-1.47c.38,1.5.82,3,1.12,4.55.2,1.05.55,1.48,1.76,1.51,3.48.1,6.39,1.44,7.84,4.83a8,8,0,0,1-2.48,9.57c-.42.35-.84.68-1.47,1.18,5.32.05,9.15,2,9.91,7.43.73,5.16-2.26,8.37-6.68,10.68l1.52,6.08-5.83,1.46-1.37-5.5-3.84.95Zm-7.38-20.78c.79,3.2,1.51,6.07,2.23,8.94.17.67.59,1.06,1.28.86a57.09,57.09,0,0,0,7.12-2.22c2.09-.92,2.87-3.48,2.21-5.7s-2.2-3.57-4.76-3.32S360,234.25,357.27,234.76ZM356.06,230c2.67-.91,5.3-1.61,7.75-2.7,2.05-.9,2.62-2.82,2-4.95a3.59,3.59,0,0,0-4.19-2.56c-1.91.2-3.78.68-5.66,1.05-.68.14-1.33.33-2,.5Z"/><path class="cls-4" d="M331.56,266.12s25.7,17,43.89,6.39c0,0-6.9,10.47-34.42,2.55-21.84-6.29-10.4-15.42-10.4-15.42S329.73,265.75,331.56,266.12Z"/><path class="cls-4" d="M327,252.18s9.59,19.38,40.59,18.76c0,0-19.73,5.24-37.78-10.57Z"/></svg>